<mxfile host="app.diagrams.net" modified="2023-04-23T07:24:32.965Z" agent="Mozilla/5.0 (Windows NT 10.0; Win64; x64) AppleWebKit/537.36 (KHTML, like Gecko) Chrome/112.0.0.0 Safari/537.36" version="21.2.1" etag="V1lWwdXQ7AiRm4P1RnK4" type="github">
  <diagram name="第 1 页" id="EgYMPnofIkKHoiYHa0mx">
    <mxGraphModel>
      <root>
        <mxCell id="0" />
        <mxCell id="1" parent="0" />
      </root>
    </mxGraphModel>
  </diagram>
</mxfile>
